<svg xmlns="http://www.w3.org/2000/svg" viewBox="0 0 512 512" role="img" aria-labelledby="tanlong-mark-title tanlong-mark-desc">
  <title id="tanlong-mark-title">坦隆环境折面 TL 标识</title>
  <desc id="tanlong-mark-desc">A folded geometric TL monogram for Tanlong Environment, inspired by architectural facets and a subtle dragon-like turning stroke.</desc>
  
  <g id="icon" shape-rendering="geometricPrecision">
    <polygon points="82,126 350,126 319,183 113,183" fill="#0D2D33"/>
    <polygon points="350,126 400,176 368,233 319,183" fill="#9BEBC8"/>
    <polygon points="319,183 368,233 313,233 281,183" fill="#173E45" opacity="1"/>
    <polygon points="207,183 281,183 239,383 165,383" fill="#0D2D33"/>
    <polygon points="281,183 321,226 279,426 239,383" fill="#173E45" opacity="1"/>
    <polygon points="86,383 165,383 205,426 124,426" fill="#75969B" opacity="0.75"/>
    <polygon points="165,383 388,383 426,426 205,426" fill="#0D2D33"/>
    <polygon points="388,383 426,426 463,382 424,334" fill="#21C7D8"/>
    <polygon points="50,383 86,383 124,426 88,426" fill="#9BEBC8"/>
    <polygon points="82,126 113,183 48,183 18,126" fill="#0D2D33" opacity="0.96"/>
  </g>
</svg>
