<svg xmlns="http://www.w3.org/2000/svg" viewBox="0 0 382 64" role="img" aria-labelledby="tanlong-full-dark-title tanlong-full-dark-desc">
  <title id="tanlong-full-dark-title">хЭжщЪЖчОпхвГ Tanlong Environment logo</title>
  <desc id="tanlong-full-dark-desc">A premium Tanlong Environment logo with a Chinese calligraphic TL monogram and bilingual wordmark.</desc>
  <defs>
    <linearGradient id="tanlong-full-dark-aqua" x1="92" y1="336" x2="438" y2="262" gradientUnits="userSpaceOnUse">
      <stop offset="0" stop-color="#8BE7C2" stop-opacity="0.94"/>
      <stop offset="0.54" stop-color="#23C4D8"/>
      <stop offset="1" stop-color="#0FA7A1"/>
    </linearGradient>
    <linearGradient id="tanlong-full-dark-edge" x1="98" y1="126" x2="430" y2="430" gradientUnits="userSpaceOnUse">
      <stop offset="0" stop-color="#8BE7C2"/>
      <stop offset="0.48" stop-color="#23C4D8"/>
      <stop offset="1" stop-color="#0FA7A1"/>
    </linearGradient>
  </defs>
  <defs></defs>
  <g fill="none">
    <g transform="translate(-2 1) scale(0.122)">
      <g id="icon">
    
    <path d="M112 150C160 133 270 128 374 140C401 143 419 154 416 170C413 188 388 194 348 188C282 178 220 181 157 194C123 201 96 192 92 176C89 164 98 155 112 150Z" fill="#102E35"/>
    <path d="M236 156C267 150 290 161 288 186C284 252 284 309 296 350C306 381 337 393 391 381C421 374 440 382 440 400C439 421 412 436 364 442C294 449 237 416 226 360C217 312 226 250 224 188C223 171 225 160 236 156Z" fill="#102E35"/>
    <path d="M232 347C281 370 337 368 404 345C431 336 448 345 444 363C441 384 412 399 366 406C311 414 263 400 229 374C216 363 218 352 232 347Z" fill="#102E35"/>
    <path d="M126 323C181 284 237 282 297 306C342 325 382 317 428 280" fill="none" stroke="url(#tanlong-full-dark-aqua)" stroke-width="26" stroke-linecap="round"/>
    <path d="M128 231C155 206 187 190 228 187" fill="none" stroke="rgba(16,46,53,0.18)" stroke-width="10" stroke-linecap="round"/>
    <circle cx="419" cy="151" r="9" fill="#8BE7C2"/>
  </g>
    </g>
    <g id="wordmark" font-family="PingFang SC, Microsoft YaHei, Noto Sans CJK SC, Source Han Sans SC, Helvetica, Arial, sans-serif">
      <text x="83" y="29" fill="#102E35" font-size="29" font-weight="760" letter-spacing="0">хЭжщЪЖчОпхвГ</text>
      <text x="85" y="50" fill="#6A8187" font-size="12.3" font-weight="650" letter-spacing="2.05">TANLONG ENVIRONMENT</text>
    </g>
  </g>
</svg>
