<svg xmlns="http://www.w3.org/2000/svg" viewBox="0 0 392 64" role="img" aria-labelledby="tanlong-full-title tanlong-full-desc">
  <title id="tanlong-full-title">хЭжщЪЖчОпхвГ Tanlong Environment logo</title>
  <desc id="tanlong-full-desc">A premium Tanlong Environment logo with a folded geometric TL monogram and bilingual wordmark.</desc>
  <defs><filter id="tanlong-full-shadow" x="-20%" y="-40%" width="140%" height="180%">
      <feDropShadow dx="0" dy="8" stdDeviation="9" flood-color="#001D25" flood-opacity="0.22"/>
    </filter></defs>
  <g id="logo-lockup" filter="url(#tanlong-full-shadow)">
    <g transform="translate(-6 -1) scale(0.13)">
      <g id="icon" shape-rendering="geometricPrecision">
    <polygon points="82,126 350,126 319,183 113,183" fill="#FFFFFF"/>
    <polygon points="350,126 400,176 368,233 319,183" fill="#9BEBC8"/>
    <polygon points="319,183 368,233 313,233 281,183" fill="#DDF8F1" opacity="0.9"/>
    <polygon points="207,183 281,183 239,383 165,383" fill="#FFFFFF"/>
    <polygon points="281,183 321,226 279,426 239,383" fill="#DDF8F1" opacity="0.9"/>
    <polygon points="86,383 165,383 205,426 124,426" fill="#78D9D0" opacity="0.75"/>
    <polygon points="165,383 388,383 426,426 205,426" fill="#FFFFFF"/>
    <polygon points="388,383 426,426 463,382 424,334" fill="#21C7D8"/>
    <polygon points="50,383 86,383 124,426 88,426" fill="#9BEBC8"/>
    <polygon points="82,126 113,183 48,183 18,126" fill="#FFFFFF" opacity="0.96"/>
  </g>
    </g>
    <g id="wordmark" font-family="PingFang SC, Microsoft YaHei, Noto Sans CJK SC, Source Han Sans SC, Helvetica, Arial, sans-serif">
      <text x="88" y="29" fill="#FFFFFF" font-size="29" font-weight="760" letter-spacing="0">хЭжщЪЖчОпхвГ</text>
      <text x="90" y="50" fill="rgba(255,255,255,0.78)" font-size="12.3" font-weight="650" letter-spacing="2.05">TANLONG ENVIRONMENT</text>
    </g>
  </g>
</svg>
