<svg xmlns="http://www.w3.org/2000/svg" viewBox="0 0 372 64" role="img" aria-labelledby="tanlong-full-dark-title tanlong-full-dark-desc">
  <title id="tanlong-full-dark-title">ÕØ”ķÜåńÄ»Õóā Tanlong Environment logo</title>
  <desc id="tanlong-full-dark-desc">A premium environmental engineering logo combining a water-loop mark, precise TL monogram, and bilingual Tanlong Environment wordmark.</desc>
  
  <defs>
    <linearGradient id="tanlong-full-dark-edge" x1="78" y1="96" x2="424" y2="416" gradientUnits="userSpaceOnUse">
      <stop offset="0" stop-color="#8BE7C2"/>
      <stop offset="0.42" stop-color="#23C4D8"/>
      <stop offset="1" stop-color="#0FA7A1"/>
    </linearGradient>
    <linearGradient id="tanlong-full-dark-flow" x1="104" y1="338" x2="420" y2="278" gradientUnits="userSpaceOnUse">
      <stop offset="0" stop-color="#FFFFFF" stop-opacity="0.72"/>
      <stop offset="0.5" stop-color="#8BE7C2"/>
      <stop offset="1" stop-color="#23C4D8"/>
    </linearGradient>
  </defs>
  <defs></defs>
  <g fill="none">
    <g transform="translate(0 1) scale(0.121)">
      
  <g id="icon">
    
    <path d="M256 58C360 58 454 140 454 253c0 112-86 201-198 201S58 365 58 253C58 142 147 58 256 58Z"
      fill="none" stroke="url(#tanlong-full-dark-edge)" stroke-width="30" stroke-linecap="round"
      stroke-dasharray="690 132" stroke-dashoffset="36"/>
    <path d="M156 168H356" stroke="#102E35" stroke-width="42" stroke-linecap="square"/>
    <path d="M256 168V344H360" stroke="#102E35" stroke-width="42" stroke-linecap="square" stroke-linejoin="miter"/>
    <path d="M132 330C180 292 235 284 296 309c48 20 90 14 132-24"
      fill="none" stroke="url(#tanlong-full-dark-flow)" stroke-width="24" stroke-linecap="round"/>
    <path d="M122 214C145 150 198 111 267 108" fill="none" stroke="#0FA7A1" stroke-width="10" stroke-linecap="round" opacity="0.2"/>
    <circle cx="395" cy="144" r="10" fill="#8BE7C2" opacity="0.92"/>
  </g>
    </g>
    <g id="wordmark" font-family="PingFang SC, Microsoft YaHei, Noto Sans CJK SC, Source Han Sans SC, Helvetica, Arial, sans-serif">
      <text x="82" y="29" fill="#102E35" font-size="29" font-weight="760" letter-spacing="0">ÕØ”ķÜåńÄ»Õóā</text>
      <text x="84" y="50" fill="#6A8187" font-size="12.3" font-weight="650" letter-spacing="2.05">TANLONG ENVIRONMENT</text>
    </g>
  </g>
</svg>
