<svg xmlns="http://www.w3.org/2000/svg" viewBox="0 0 512 512" role="img" aria-labelledby="tanlong-mark-dark-title tanlong-mark-dark-desc">
  <title id="tanlong-mark-dark-title">坦隆环境折面 TL 标识</title>
  <desc id="tanlong-mark-dark-desc">A folded geometric TL monogram for Tanlong Environment, inspired by architectural facets and a subtle dragon-like turning stroke.</desc>
  <rect width="512" height="512" rx="112" fill="#082E35"/>
  <g id="icon" shape-rendering="geometricPrecision">
    <polygon points="82,126 350,126 319,183 113,183" fill="#FFFFFF"/>
    <polygon points="350,126 400,176 368,233 319,183" fill="#9BEBC8"/>
    <polygon points="319,183 368,233 313,233 281,183" fill="#DDF8F1" opacity="0.9"/>
    <polygon points="207,183 281,183 239,383 165,383" fill="#FFFFFF"/>
    <polygon points="281,183 321,226 279,426 239,383" fill="#DDF8F1" opacity="0.9"/>
    <polygon points="86,383 165,383 205,426 124,426" fill="#78D9D0" opacity="0.75"/>
    <polygon points="165,383 388,383 426,426 205,426" fill="#FFFFFF"/>
    <polygon points="388,383 426,426 463,382 424,334" fill="#21C7D8"/>
    <polygon points="50,383 86,383 124,426 88,426" fill="#9BEBC8"/>
    <polygon points="82,126 113,183 48,183 18,126" fill="#FFFFFF" opacity="0.96"/>
  </g>
</svg>
