<svg xmlns="http://www.w3.org/2000/svg" viewBox="0 0 512 512" role="img" aria-labelledby="tanlong-mark-title tanlong-mark-desc">
  <title id="tanlong-mark-title">坦隆环境极简龙形 TL 标识</title>
  <desc id="tanlong-mark-desc">A minimalist Chinese calligraphic dragon mark that subtly integrates the letters T and L.</desc>
  <defs>
    <linearGradient id="tanlong-mark-water" x1="108" y1="315" x2="438" y2="263" gradientUnits="userSpaceOnUse">
      <stop offset="0" stop-color="#8BE7C2"/>
      <stop offset="0.52" stop-color="#22C5D6"/>
      <stop offset="1" stop-color="#0FA7A1"/>
    </linearGradient>
  </defs>
  
  <g id="icon">
    <path d="M118 155C188 134 300 133 394 159" fill="none" stroke="#102E35" stroke-width="35" stroke-linecap="round"/>
    <path d="M252 152C232 219 205 282 169 354" fill="none" stroke="#102E35" stroke-width="33" stroke-linecap="round"/>
    <path d="M265 163C255 236 262 306 293 351C316 385 363 388 422 347" fill="none" stroke="#102E35" stroke-width="40" stroke-linecap="round" stroke-linejoin="round"/>
    <path d="M145 365C220 405 331 399 429 332" fill="none" stroke="#102E35" stroke-width="30" stroke-linecap="round"/>
    <path d="M122 282C184 250 244 258 304 287C354 311 397 301 437 262" fill="none" stroke="url(#tanlong-mark-water)" stroke-width="19" stroke-linecap="round"/>
    <path d="M358 126C385 107 418 109 443 132" fill="none" stroke="url(#tanlong-mark-water)" stroke-width="10" stroke-linecap="round"/>
    <path d="M126 235C154 209 188 195 227 193" fill="none" stroke="rgba(16,46,53,0.18)" stroke-width="8" stroke-linecap="round"/>
    <circle cx="389" cy="151" r="8" fill="#8BE7C2"/>
  </g>
</svg>
