<svg xmlns="http://www.w3.org/2000/svg" viewBox="0 0 1024 512" role="img" aria-labelledby="undefined-title undefined-desc">
  <title id="undefined-title">Seal Brush</title>
  <desc id="undefined-desc">书法 TL 置于开放水印中，更机构化，适合证书和工程铭牌。</desc>
  <defs>
    <linearGradient id="undefined-bg" x1="0" y1="0" x2="1024" y2="512" gradientUnits="userSpaceOnUse">
      <stop offset="0" stop-color="#F7FBFA"/>
      <stop offset="1" stop-color="#E8F5F2"/>
    </linearGradient>
  </defs>
  <rect width="1024" height="512" rx="38" fill="url(#undefined-bg)"/>
  <g transform="translate(94 72) scale(0.7)"><defs>
    <linearGradient id="c2-aqua" x1="92" y1="336" x2="438" y2="262" gradientUnits="userSpaceOnUse">
      <stop offset="0" stop-color="#8BE7C2" stop-opacity="0.94"/>
      <stop offset="0.54" stop-color="#23C4D8"/>
      <stop offset="1" stop-color="#0FA7A1"/>
    </linearGradient>
    <linearGradient id="c2-edge" x1="98" y1="126" x2="430" y2="430" gradientUnits="userSpaceOnUse">
      <stop offset="0" stop-color="#8BE7C2"/>
      <stop offset="0.48" stop-color="#23C4D8"/>
      <stop offset="1" stop-color="#0FA7A1"/>
    </linearGradient>
  </defs><g id="icon">
      <path d="M258 58C360 58 452 140 452 254c0 113-87 200-198 200S58 366 58 254C58 142 148 58 258 58Z"
        fill="none" stroke="url(#c2-edge)" stroke-width="24" stroke-linecap="round"
        stroke-dasharray="604 118" stroke-dashoffset="48" opacity="1"/>
      <path d="M128 151C178 132 272 126 371 139C398 142 414 154 410 171C406 189 381 194 340 188C282 180 225 183 165 194C132 200 107 192 101 177C96 165 105 158 128 151Z" fill="#102E35"/>
      <path d="M226 158C256 151 280 161 279 187C277 252 278 310 291 350C303 385 334 398 384 386C416 378 435 386 435 403C435 424 407 441 360 445C292 450 235 414 224 358C215 310 223 250 220 188C219 171 220 162 226 158Z" fill="#102E35"/>
      <path d="M231 347C279 369 334 367 400 345C427 336 444 345 441 363C438 384 410 399 365 405C310 413 263 400 230 374C216 363 217 353 231 347Z" fill="#102E35"/>
      <path d="M135 322C184 284 239 281 296 305C341 324 381 315 425 279" fill="none" stroke="url(#c2-aqua)" stroke-width="26" stroke-linecap="round"/>
      <path d="M125 232C151 204 183 188 224 185" fill="none" stroke="rgba(16,46,53,0.18)" stroke-width="10" stroke-linecap="round"/>
    </g></g>
  <g font-family="PingFang SC, Microsoft YaHei, Noto Sans CJK SC, Source Han Sans SC, Helvetica, Arial, sans-serif">
    <text x="458" y="188" fill="#102E35" font-size="58" font-weight="760" letter-spacing="0">坦隆环境</text>
    <text x="462" y="237" fill="#6A8187" font-size="22" font-weight="700" letter-spacing="4.4">TANLONG ENVIRONMENT</text>
    <text x="462" y="304" fill="#0FA7A1" font-size="20" font-weight="650" letter-spacing="3">MODERN WATER SEAL</text>
    <path d="M462 334H706" stroke="#0FA7A1" stroke-width="4" stroke-linecap="round"/>
    <path d="M724 334H778" stroke="#8BE7C2" stroke-width="4" stroke-linecap="round"/>
    <text x="92" y="438" fill="#6A8187" font-size="20" font-weight="650" letter-spacing="2">SEAL BRUSH</text>
    <text x="92" y="468" fill="#6A8187" font-size="15" opacity="0.78">书法 TL 置于开放水印中，更机构化，适合证书和工程铭牌。</text>
  </g>
  <text x="812" y="438" fill="#6A8187" font-family="Helvetica, Arial, sans-serif" font-size="15" font-weight="700" letter-spacing="2">OPTION</text>
</svg>
