<svg xmlns="http://www.w3.org/2000/svg" viewBox="0 0 1024 512" role="img" aria-labelledby="concept-3-segmented-tl-title concept-3-segmented-tl-desc">
  <title id="concept-3-segmented-tl-title">Segmented TL</title>
  <desc id="concept-3-segmented-tl-desc">更接近参考图左侧的断裂块面，识别度强，但整体气质更锋利。</desc>
  <defs>
    <linearGradient id="concept-3-segmented-tl-bg" x1="0" y1="0" x2="1024" y2="512" gradientUnits="userSpaceOnUse">
      <stop offset="0" stop-color="#F8FCFB"/>
      <stop offset="1" stop-color="#E6F4F1"/>
    </linearGradient>
    <filter id="concept-3-segmented-tl-soft" x="-12%" y="-16%" width="124%" height="132%">
      <feDropShadow dx="0" dy="18" stdDeviation="18" flood-color="#082E35" flood-opacity="0.12"/>
    </filter>
  </defs>
  <rect width="1024" height="512" rx="38" fill="url(#concept-3-segmented-tl-bg)"/>
  <g filter="url(#concept-3-segmented-tl-soft)">
    <rect x="74" y="58" width="364" height="396" rx="22" fill="#082E35"/>
    <g transform="translate(0 0)">
      <g id="icon" shape-rendering="geometricPrecision">
      <polygon points="76,126 145,126 116,183 47,183" fill="#FFFFFF"/>
      <polygon points="212,126 319,126 289,183 190,183" fill="#FFFFFF"/>
      <polygon points="346,118 397,171 366,228 316,176" fill="#9BEBC8"/>
      <polygon points="207,183 280,183 239,382 166,382" fill="#FFFFFF"/>
      <polygon points="280,183 318,225 277,425 239,382" fill="#DDF8F1" opacity="0.9"/>
      <polygon points="82,382 166,382 206,430 119,430" fill="#FFFFFF"/>
      <polygon points="204,382 386,382 426,430 164,430" fill="#FFFFFF"/>
      <polygon points="386,382 426,430 462,382 424,334" fill="#21C7D8"/>
    </g>
    </g>
  </g>
  <g font-family="PingFang SC, Microsoft YaHei, Noto Sans CJK SC, Source Han Sans SC, Helvetica, Arial, sans-serif">
    <text x="510" y="184" fill="#0D2D33" font-size="58" font-weight="760">坦隆环境</text>
    <text x="514" y="233" fill="#6D858B" font-size="22" font-weight="700" letter-spacing="4.4">TANLONG ENVIRONMENT</text>
    <text x="514" y="296" fill="#0EA7A0" font-size="20" font-weight="650" letter-spacing="3">BROKEN FOLD SYSTEM</text>
    <path d="M514 326H748" stroke="#0EA7A0" stroke-width="4" stroke-linecap="round"/>
    <path d="M766 326H822" stroke="#9BEBC8" stroke-width="4" stroke-linecap="round"/>
    <text x="92" y="478" fill="#6D858B" font-size="15" font-weight="650" letter-spacing="1.5">更接近参考图左侧的断裂块面，识别度强，但整体气质更锋利。</text>
  </g>
  <text x="822" y="438" fill="#6D858B" font-family="Helvetica, Arial, sans-serif" font-size="15" font-weight="700" letter-spacing="2">OPTION</text>
</svg>
