<svg xmlns="http://www.w3.org/2000/svg" viewBox="0 0 1024 512" role="img" aria-labelledby="concept-2-dragon-seal-title concept-2-dragon-seal-desc">
  <title id="concept-2-dragon-seal-title">Dragon Seal</title>
  <desc id="concept-2-dragon-seal-desc">更像现代水印，龙形更完整，适合集团物料和证书。</desc>
  <defs>
    <linearGradient id="concept-2-dragon-seal-bg" x1="0" y1="0" x2="1024" y2="512" gradientUnits="userSpaceOnUse">
      <stop offset="0" stop-color="#F8FCFB"/>
      <stop offset="1" stop-color="#E8F5F2"/>
    </linearGradient>
  </defs>
  <rect width="1024" height="512" rx="38" fill="url(#concept-2-dragon-seal-bg)"/>
  <g transform="translate(82 60) scale(0.74)"><defs>
    <linearGradient id="concept-2-dragon-seal-water" x1="108" y1="315" x2="438" y2="263" gradientUnits="userSpaceOnUse">
      <stop offset="0" stop-color="#8BE7C2"/>
      <stop offset="0.52" stop-color="#22C5D6"/>
      <stop offset="1" stop-color="#0FA7A1"/>
    </linearGradient>
  </defs><g id="icon">
      <path d="M121 154C188 133 294 131 385 153" fill="none" stroke="#102E35" stroke-width="34" stroke-linecap="round"/>
      <path d="M252 151C232 215 205 277 166 349" fill="none" stroke="#102E35" stroke-width="34" stroke-linecap="round"/>
      <path d="M263 164C254 236 260 304 290 351C314 390 363 395 425 354" fill="none" stroke="#102E35" stroke-width="40" stroke-linecap="round" stroke-linejoin="round"/>
      <path d="M142 367C214 407 328 404 430 331" fill="none" stroke="#102E35" stroke-width="30" stroke-linecap="round"/>
      <path d="M121 282C182 249 244 258 302 286C355 312 396 301 438 259" fill="none" stroke="url(#concept-2-dragon-seal-water)" stroke-width="18" stroke-linecap="round"/>
      <path d="M142 120C225 82 340 91 423 145" fill="none" stroke="url(#concept-2-dragon-seal-water)" stroke-width="11" stroke-linecap="round" opacity="0.76"/>
      <path d="M99 255C96 180 145 110 218 82" fill="none" stroke="rgba(16,46,53,0.18)" stroke-width="8" stroke-linecap="round"/>
      <path d="M391 147L425 127" stroke="url(#concept-2-dragon-seal-water)" stroke-width="10" stroke-linecap="round"/>
      <circle cx="381" cy="144" r="8" fill="#8BE7C2"/>
    </g></g>
  <g font-family="PingFang SC, Microsoft YaHei, Noto Sans CJK SC, Source Han Sans SC, Helvetica, Arial, sans-serif">
    <text x="466" y="188" fill="#102E35" font-size="58" font-weight="760">坦隆环境</text>
    <text x="470" y="237" fill="#6A8187" font-size="22" font-weight="700" letter-spacing="4.4">TANLONG ENVIRONMENT</text>
    <text x="470" y="304" fill="#0FA7A1" font-size="20" font-weight="650" letter-spacing="3">OPEN WATER DRAGON</text>
    <path d="M470 334H704" stroke="#0FA7A1" stroke-width="4" stroke-linecap="round"/>
    <path d="M722 334H778" stroke="#8BE7C2" stroke-width="4" stroke-linecap="round"/>
    <text x="92" y="438" fill="#6A8187" font-size="20" font-weight="650" letter-spacing="2">DRAGON SEAL</text>
    <text x="92" y="468" fill="#6A8187" font-size="15" opacity="0.78">更像现代水印，龙形更完整，适合集团物料和证书。</text>
  </g>
  <text x="812" y="438" fill="#6A8187" font-family="Helvetica, Arial, sans-serif" font-size="15" font-weight="700" letter-spacing="2">OPTION</text>
</svg>
