<svg xmlns="http://www.w3.org/2000/svg" viewBox="0 0 1024 512" role="img" aria-labelledby="concept-3-title concept-3-desc">
  <title id="concept-3-title">Concept 3 Engineering Axis</title>
  <desc id="concept-3-desc">更工业、更上市公司式的轴线标识，强调可靠交付。</desc>
  <defs>
    <linearGradient id="concept-3-bg" x1="0" y1="0" x2="1024" y2="512" gradientUnits="userSpaceOnUse">
      <stop offset="0" stop-color="#F6FBFA"/>
      <stop offset="1" stop-color="#E7F5F2"/>
    </linearGradient>
  </defs>
  <rect width="1024" height="512" rx="38" fill="url(#concept-3-bg)"/>
  <g transform="translate(92 92)">
    
      <g transform="translate(28 34) scale(0.62)">
        <rect x="62" y="56" width="316" height="316" rx="56" fill="#0B2F38"/>
        <path d="M118 138H320M220 138V306H318" stroke="#FFFFFF" stroke-width="44" stroke-linecap="square" stroke-linejoin="miter"/>
        <path d="M86 302C152 264 210 259 270 283C316 302 356 294 402 250" fill="none" stroke="#8BE7C2" stroke-width="24" stroke-linecap="round"/>
        <path d="M82 84H158M286 372H382" stroke="#23C4D8" stroke-width="12" stroke-linecap="round"/>
      </g>
  </g>
  <g font-family="PingFang SC, Microsoft YaHei, Noto Sans CJK SC, Source Han Sans SC, Helvetica, Arial, sans-serif">
    
      <text x="456" y="188" fill="#102E35" font-size="57" font-weight="800">坦隆环境</text>
      <text x="460" y="238" fill="#6A8187" font-size="22" font-weight="680" letter-spacing="4.6">TANLONG ENVIRONMENT</text>
      <rect x="460" y="276" width="194" height="8" rx="4" fill="#0FA7A1"/>
      <rect x="670" y="276" width="72" height="8" rx="4" fill="#8BE7C2"/>
    
    <text x="92" y="438" fill="#6A8187" font-size="20" font-weight="650" letter-spacing="2">ENGINEERING AXIS</text>
    <text x="92" y="468" fill="#6A8187" font-size="15" opacity="0.78">更工业、更上市公司式的轴线标识，强调可靠交付。</text>
  </g>
</svg>
