<svg xmlns="http://www.w3.org/2000/svg" viewBox="0 0 1024 512" role="img" aria-labelledby="concept-2-title concept-2-desc">
  <title id="concept-2-title">Concept 2 Contour Rise</title>
  <desc id="concept-2-desc">山水等高线与上升的工程基座，气质更东方、更留白。</desc>
  <defs>
    <linearGradient id="concept-2-bg" x1="0" y1="0" x2="1024" y2="512" gradientUnits="userSpaceOnUse">
      <stop offset="0" stop-color="#F6FBFA"/>
      <stop offset="1" stop-color="#E7F5F2"/>
    </linearGradient>
  </defs>
  <rect width="1024" height="512" rx="38" fill="url(#concept-2-bg)"/>
  <g transform="translate(92 92)">
    
      <g transform="translate(24 28) scale(0.62)">
        <path d="M42 246C74 165 138 104 226 70C302 100 363 160 402 244" fill="none" stroke="#0FA7A1" stroke-width="28" stroke-linecap="round"/>
        <path d="M80 256C134 215 190 200 250 211C303 221 349 205 392 166" fill="none" stroke="#23C4D8" stroke-width="22" stroke-linecap="round"/>
        <path d="M98 312C158 274 220 266 282 288C330 305 374 300 420 268" fill="none" stroke="#8BE7C2" stroke-width="18" stroke-linecap="round"/>
        <path d="M194 122H310M252 122V330H344" stroke="#102E35" stroke-width="40" stroke-linecap="square" stroke-linejoin="miter"/>
      </g>
  </g>
  <g font-family="PingFang SC, Microsoft YaHei, Noto Sans CJK SC, Source Han Sans SC, Helvetica, Arial, sans-serif">
    
      <text x="456" y="190" fill="#102E35" font-size="56" font-weight="720">坦隆环境</text>
      <text x="460" y="238" fill="#6A8187" font-size="21" font-weight="680" letter-spacing="4.2">TANLONG ENVIRONMENT</text>
      <text x="460" y="302" fill="#0FA7A1" font-size="20" font-weight="650" letter-spacing="3">LOW-CARBON WATER SYSTEMS</text>
    
    <text x="92" y="438" fill="#6A8187" font-size="20" font-weight="650" letter-spacing="2">CONTOUR RISE</text>
    <text x="92" y="468" fill="#6A8187" font-size="15" opacity="0.78">山水等高线与上升的工程基座，气质更东方、更留白。</text>
  </g>
</svg>
