<svg xmlns="http://www.w3.org/2000/svg" viewBox="0 0 1024 512" role="img" aria-labelledby="concept-1-title concept-1-desc">
  <title id="concept-1-title">Concept 1 Water Gate</title>
  <desc id="concept-1-desc">水脉环绕，工程门架式 TL，适合官网导航和正式物料。</desc>
  <defs>
    <linearGradient id="concept-1-bg" x1="0" y1="0" x2="1024" y2="512" gradientUnits="userSpaceOnUse">
      <stop offset="0" stop-color="#F6FBFA"/>
      <stop offset="1" stop-color="#E7F5F2"/>
    </linearGradient>
  </defs>
  <rect width="1024" height="512" rx="38" fill="url(#concept-1-bg)"/>
  <g transform="translate(92 92)">
    <g transform="scale(0.62)">
  <defs>
    <linearGradient id="c1-edge" x1="78" y1="96" x2="424" y2="416" gradientUnits="userSpaceOnUse">
      <stop offset="0" stop-color="#8BE7C2"/>
      <stop offset="0.42" stop-color="#23C4D8"/>
      <stop offset="1" stop-color="#0FA7A1"/>
    </linearGradient>
    <linearGradient id="c1-flow" x1="104" y1="338" x2="420" y2="278" gradientUnits="userSpaceOnUse">
      <stop offset="0" stop-color="#FFFFFF" stop-opacity="0.72"/>
      <stop offset="0.5" stop-color="#8BE7C2"/>
      <stop offset="1" stop-color="#23C4D8"/>
    </linearGradient>
  </defs>
  <g id="icon">
    
    <path d="M256 58C360 58 454 140 454 253c0 112-86 201-198 201S58 365 58 253C58 142 147 58 256 58Z"
      fill="none" stroke="url(#c1-edge)" stroke-width="30" stroke-linecap="round"
      stroke-dasharray="690 132" stroke-dashoffset="36"/>
    <path d="M156 168H356" stroke="#102E35" stroke-width="42" stroke-linecap="square"/>
    <path d="M256 168V344H360" stroke="#102E35" stroke-width="42" stroke-linecap="square" stroke-linejoin="miter"/>
    <path d="M132 330C180 292 235 284 296 309c48 20 90 14 132-24"
      fill="none" stroke="url(#c1-flow)" stroke-width="24" stroke-linecap="round"/>
    <path d="M122 214C145 150 198 111 267 108" fill="none" stroke="#0FA7A1" stroke-width="10" stroke-linecap="round" opacity="0.2"/>
    <circle cx="395" cy="144" r="10" fill="#8BE7C2" opacity="0.92"/>
  </g></g>
  </g>
  <g font-family="PingFang SC, Microsoft YaHei, Noto Sans CJK SC, Source Han Sans SC, Helvetica, Arial, sans-serif">
    
      <text x="422" y="194" fill="#102E35" font-size="58" font-weight="760" letter-spacing="0">坦隆环境</text>
      <text x="426" y="242" fill="#6A8187" font-size="22" font-weight="700" letter-spacing="4">TANLONG ENVIRONMENT</text>
      <path d="M426 282H746" stroke="#0FA7A1" stroke-width="4" stroke-linecap="round"/>
    
    <text x="92" y="438" fill="#6A8187" font-size="20" font-weight="650" letter-spacing="2">WATER GATE / RECOMMENDED</text>
    <text x="92" y="468" fill="#6A8187" font-size="15" opacity="0.78">水脉环绕，工程门架式 TL，适合官网导航和正式物料。</text>
  </g>
</svg>
