<svg xmlns="http://www.w3.org/2000/svg" viewBox="0 0 1024 512" role="img" aria-labelledby="concept-1-folded-dragon-tl-title concept-1-folded-dragon-tl-desc">
  <title id="concept-1-folded-dragon-tl-title">Folded Dragon TL</title>
  <desc id="concept-1-folded-dragon-tl-desc">采用附件的折面字母逻辑，T 的横势、L 的底座和龙身转折合成一个工程感标识。</desc>
  <defs>
    <linearGradient id="concept-1-folded-dragon-tl-bg" x1="0" y1="0" x2="1024" y2="512" gradientUnits="userSpaceOnUse">
      <stop offset="0" stop-color="#F8FCFB"/>
      <stop offset="1" stop-color="#E6F4F1"/>
    </linearGradient>
    <filter id="concept-1-folded-dragon-tl-soft" x="-12%" y="-16%" width="124%" height="132%">
      <feDropShadow dx="0" dy="18" stdDeviation="18" flood-color="#082E35" flood-opacity="0.12"/>
    </filter>
  </defs>
  <rect width="1024" height="512" rx="38" fill="url(#concept-1-folded-dragon-tl-bg)"/>
  <g filter="url(#concept-1-folded-dragon-tl-soft)">
    <rect x="74" y="58" width="364" height="396" rx="22" fill="#082E35"/>
    <g transform="translate(0 0)">
      <g id="icon" shape-rendering="geometricPrecision">
    <polygon points="82,126 350,126 319,183 113,183" fill="#FFFFFF"/>
    <polygon points="350,126 400,176 368,233 319,183" fill="#9BEBC8"/>
    <polygon points="319,183 368,233 313,233 281,183" fill="#DDF8F1" opacity="0.9"/>
    <polygon points="207,183 281,183 239,383 165,383" fill="#FFFFFF"/>
    <polygon points="281,183 321,226 279,426 239,383" fill="#DDF8F1" opacity="0.9"/>
    <polygon points="86,383 165,383 205,426 124,426" fill="#78D9D0" opacity="0.75"/>
    <polygon points="165,383 388,383 426,426 205,426" fill="#FFFFFF"/>
    <polygon points="388,383 426,426 463,382 424,334" fill="#21C7D8"/>
    <polygon points="50,383 86,383 124,426 88,426" fill="#9BEBC8"/>
    <polygon points="82,126 113,183 48,183 18,126" fill="#FFFFFF" opacity="0.96"/>
  </g>
    </g>
  </g>
  <g font-family="PingFang SC, Microsoft YaHei, Noto Sans CJK SC, Source Han Sans SC, Helvetica, Arial, sans-serif">
    <text x="510" y="184" fill="#0D2D33" font-size="58" font-weight="760">坦隆环境</text>
    <text x="514" y="233" fill="#6D858B" font-size="22" font-weight="700" letter-spacing="4.4">TANLONG ENVIRONMENT</text>
    <text x="514" y="296" fill="#0EA7A0" font-size="20" font-weight="650" letter-spacing="3">FOLDED GEOMETRIC TL</text>
    <path d="M514 326H748" stroke="#0EA7A0" stroke-width="4" stroke-linecap="round"/>
    <path d="M766 326H822" stroke="#9BEBC8" stroke-width="4" stroke-linecap="round"/>
    <text x="92" y="478" fill="#6D858B" font-size="15" font-weight="650" letter-spacing="1.5">采用附件的折面字母逻辑，T 的横势、L 的底座和龙身转折合成一个工程感标识。</text>
  </g>
  <text x="822" y="438" fill="#0EA7A0" font-family="Helvetica, Arial, sans-serif" font-size="15" font-weight="700" letter-spacing="2">RECOMMENDED</text>
</svg>
