<svg xmlns="http://www.w3.org/2000/svg" viewBox="0 0 1024 512" role="img" aria-labelledby="concept-1-dragon-spine-title concept-1-dragon-spine-desc">
  <title id="concept-1-dragon-spine-title">Dragon Spine</title>
  <desc id="concept-1-dragon-spine-desc">龙首横势藏 T，龙身下摆藏 L，极简且适合官网导航。</desc>
  <defs>
    <linearGradient id="concept-1-dragon-spine-bg" x1="0" y1="0" x2="1024" y2="512" gradientUnits="userSpaceOnUse">
      <stop offset="0" stop-color="#F8FCFB"/>
      <stop offset="1" stop-color="#E8F5F2"/>
    </linearGradient>
  </defs>
  <rect width="1024" height="512" rx="38" fill="url(#concept-1-dragon-spine-bg)"/>
  <g transform="translate(82 60) scale(0.74)"><defs>
    <linearGradient id="concept-1-dragon-spine-water" x1="108" y1="315" x2="438" y2="263" gradientUnits="userSpaceOnUse">
      <stop offset="0" stop-color="#8BE7C2"/>
      <stop offset="0.52" stop-color="#22C5D6"/>
      <stop offset="1" stop-color="#0FA7A1"/>
    </linearGradient>
  </defs><g id="icon">
    <path d="M118 155C188 134 300 133 394 159" fill="none" stroke="#102E35" stroke-width="35" stroke-linecap="round"/>
    <path d="M252 152C232 219 205 282 169 354" fill="none" stroke="#102E35" stroke-width="33" stroke-linecap="round"/>
    <path d="M265 163C255 236 262 306 293 351C316 385 363 388 422 347" fill="none" stroke="#102E35" stroke-width="40" stroke-linecap="round" stroke-linejoin="round"/>
    <path d="M145 365C220 405 331 399 429 332" fill="none" stroke="#102E35" stroke-width="30" stroke-linecap="round"/>
    <path d="M122 282C184 250 244 258 304 287C354 311 397 301 437 262" fill="none" stroke="url(#concept-1-dragon-spine-water)" stroke-width="19" stroke-linecap="round"/>
    <path d="M358 126C385 107 418 109 443 132" fill="none" stroke="url(#concept-1-dragon-spine-water)" stroke-width="10" stroke-linecap="round"/>
    <path d="M126 235C154 209 188 195 227 193" fill="none" stroke="rgba(16,46,53,0.18)" stroke-width="8" stroke-linecap="round"/>
    <circle cx="389" cy="151" r="8" fill="#8BE7C2"/>
  </g></g>
  <g font-family="PingFang SC, Microsoft YaHei, Noto Sans CJK SC, Source Han Sans SC, Helvetica, Arial, sans-serif">
    <text x="466" y="188" fill="#102E35" font-size="58" font-weight="760">坦隆环境</text>
    <text x="470" y="237" fill="#6A8187" font-size="22" font-weight="700" letter-spacing="4.4">TANLONG ENVIRONMENT</text>
    <text x="470" y="304" fill="#0FA7A1" font-size="20" font-weight="650" letter-spacing="3">MINIMAL DRAGON TL</text>
    <path d="M470 334H704" stroke="#0FA7A1" stroke-width="4" stroke-linecap="round"/>
    <path d="M722 334H778" stroke="#8BE7C2" stroke-width="4" stroke-linecap="round"/>
    <text x="92" y="438" fill="#6A8187" font-size="20" font-weight="650" letter-spacing="2">DRAGON SPINE</text>
    <text x="92" y="468" fill="#6A8187" font-size="15" opacity="0.78">龙首横势藏 T，龙身下摆藏 L，极简且适合官网导航。</text>
  </g>
  <text x="812" y="438" fill="#0FA7A1" font-family="Helvetica, Arial, sans-serif" font-size="15" font-weight="700" letter-spacing="2">RECOMMENDED</text>
</svg>
