<svg xmlns="http://www.w3.org/2000/svg" viewBox="0 0 1024 512" role="img" aria-labelledby="concept-3-river-dragon-title concept-3-river-dragon-desc">
  <title id="concept-3-river-dragon-title">River Dragon</title>
  <desc id="concept-3-river-dragon-desc">水色尾部更强，环境友好感最好，但品牌厚重感略弱。</desc>
  <defs>
    <linearGradient id="concept-3-river-dragon-bg" x1="0" y1="0" x2="1024" y2="512" gradientUnits="userSpaceOnUse">
      <stop offset="0" stop-color="#F8FCFB"/>
      <stop offset="1" stop-color="#E8F5F2"/>
    </linearGradient>
  </defs>
  <rect width="1024" height="512" rx="38" fill="url(#concept-3-river-dragon-bg)"/>
  <g transform="translate(82 60) scale(0.74)"><defs>
    <linearGradient id="concept-3-river-dragon-water" x1="108" y1="315" x2="438" y2="263" gradientUnits="userSpaceOnUse">
      <stop offset="0" stop-color="#8BE7C2"/>
      <stop offset="0.52" stop-color="#22C5D6"/>
      <stop offset="1" stop-color="#0FA7A1"/>
    </linearGradient>
  </defs><g id="icon">
      <path d="M119 156C190 136 301 136 397 160" fill="none" stroke="#102E35" stroke-width="34" stroke-linecap="round"/>
      <path d="M251 154C232 222 207 286 171 356" fill="none" stroke="#102E35" stroke-width="32" stroke-linecap="round"/>
      <path d="M265 164C255 236 263 306 294 352C317 385 363 386 420 345" fill="none" stroke="#102E35" stroke-width="38" stroke-linecap="round" stroke-linejoin="round"/>
      <path d="M137 365C220 407 332 398 435 329" fill="none" stroke="url(#concept-3-river-dragon-water)" stroke-width="28" stroke-linecap="round"/>
      <path d="M121 282C185 249 245 258 304 286C354 310 394 300 433 266" fill="none" stroke="#102E35" stroke-width="13" stroke-linecap="round" opacity="0.48"/>
      <path d="M360 126C387 107 419 109 445 132" fill="none" stroke="url(#concept-3-river-dragon-water)" stroke-width="10" stroke-linecap="round"/>
      <circle cx="391" cy="151" r="8" fill="#8BE7C2"/>
    </g></g>
  <g font-family="PingFang SC, Microsoft YaHei, Noto Sans CJK SC, Source Han Sans SC, Helvetica, Arial, sans-serif">
    <text x="466" y="188" fill="#102E35" font-size="58" font-weight="760">坦隆环境</text>
    <text x="470" y="237" fill="#6A8187" font-size="22" font-weight="700" letter-spacing="4.4">TANLONG ENVIRONMENT</text>
    <text x="470" y="304" fill="#0FA7A1" font-size="20" font-weight="650" letter-spacing="3">WATER TAIL TL</text>
    <path d="M470 334H704" stroke="#0FA7A1" stroke-width="4" stroke-linecap="round"/>
    <path d="M722 334H778" stroke="#8BE7C2" stroke-width="4" stroke-linecap="round"/>
    <text x="92" y="438" fill="#6A8187" font-size="20" font-weight="650" letter-spacing="2">RIVER DRAGON</text>
    <text x="92" y="468" fill="#6A8187" font-size="15" opacity="0.78">水色尾部更强，环境友好感最好，但品牌厚重感略弱。</text>
  </g>
  <text x="812" y="438" fill="#6A8187" font-family="Helvetica, Arial, sans-serif" font-size="15" font-weight="700" letter-spacing="2">OPTION</text>
</svg>
