<svg xmlns="http://www.w3.org/2000/svg" viewBox="0 0 1024 512" role="img" aria-labelledby="undefined-title undefined-desc">
  <title id="undefined-title">Literati Line</title>
  <desc id="undefined-desc">更通透、更留白，适合品牌传播，但小尺寸需要更强轮廓。</desc>
  <defs>
    <linearGradient id="undefined-bg" x1="0" y1="0" x2="1024" y2="512" gradientUnits="userSpaceOnUse">
      <stop offset="0" stop-color="#F7FBFA"/>
      <stop offset="1" stop-color="#E8F5F2"/>
    </linearGradient>
  </defs>
  <rect width="1024" height="512" rx="38" fill="url(#undefined-bg)"/>
  <g transform="translate(94 72) scale(0.7)"><defs>
    <linearGradient id="c3-aqua" x1="92" y1="336" x2="438" y2="262" gradientUnits="userSpaceOnUse">
      <stop offset="0" stop-color="#8BE7C2" stop-opacity="0.94"/>
      <stop offset="0.54" stop-color="#23C4D8"/>
      <stop offset="1" stop-color="#0FA7A1"/>
    </linearGradient>
    <linearGradient id="c3-edge" x1="98" y1="126" x2="430" y2="430" gradientUnits="userSpaceOnUse">
      <stop offset="0" stop-color="#8BE7C2"/>
      <stop offset="0.48" stop-color="#23C4D8"/>
      <stop offset="1" stop-color="#0FA7A1"/>
    </linearGradient>
  </defs><g id="icon">
      <path d="M118 160C175 136 286 132 401 149" fill="none" stroke="#102E35" stroke-width="40" stroke-linecap="round"/>
      <path d="M246 153C250 211 246 282 260 344C268 382 304 398 378 382" fill="none" stroke="#102E35" stroke-width="42" stroke-linecap="round" stroke-linejoin="round"/>
      <path d="M112 336C172 292 234 287 299 312C348 331 391 316 434 276" fill="none" stroke="url(#c3-aqua)" stroke-width="22" stroke-linecap="round"/>
      <path d="M155 414H392" stroke="rgba(16,46,53,0.22)" stroke-width="8" stroke-linecap="round"/>
      <circle cx="414" cy="154" r="9" fill="#8BE7C2"/>
    </g></g>
  <g font-family="PingFang SC, Microsoft YaHei, Noto Sans CJK SC, Source Han Sans SC, Helvetica, Arial, sans-serif">
    <text x="458" y="188" fill="#102E35" font-size="58" font-weight="760" letter-spacing="0">坦隆环境</text>
    <text x="462" y="237" fill="#6A8187" font-size="22" font-weight="700" letter-spacing="4.4">TANLONG ENVIRONMENT</text>
    <text x="462" y="304" fill="#0FA7A1" font-size="20" font-weight="650" letter-spacing="3">HORIZON BRUSH MARK</text>
    <path d="M462 334H706" stroke="#0FA7A1" stroke-width="4" stroke-linecap="round"/>
    <path d="M724 334H778" stroke="#8BE7C2" stroke-width="4" stroke-linecap="round"/>
    <text x="92" y="438" fill="#6A8187" font-size="20" font-weight="650" letter-spacing="2">LITERATI LINE</text>
    <text x="92" y="468" fill="#6A8187" font-size="15" opacity="0.78">更通透、更留白，适合品牌传播，但小尺寸需要更强轮廓。</text>
  </g>
  <text x="812" y="438" fill="#6A8187" font-family="Helvetica, Arial, sans-serif" font-size="15" font-weight="700" letter-spacing="2">OPTION</text>
</svg>
