<svg xmlns="http://www.w3.org/2000/svg" viewBox="0 0 1024 512" role="img" aria-labelledby="concept-2-prism-line-tl-title concept-2-prism-line-tl-desc">
  <title id="concept-2-prism-line-tl-title">Prism Line TL</title>
  <desc id="concept-2-prism-line-tl-desc">更接近参考图右侧的立体线框，适合品牌规范页，但官网小尺寸稍弱。</desc>
  <defs>
    <linearGradient id="concept-2-prism-line-tl-bg" x1="0" y1="0" x2="1024" y2="512" gradientUnits="userSpaceOnUse">
      <stop offset="0" stop-color="#F8FCFB"/>
      <stop offset="1" stop-color="#E6F4F1"/>
    </linearGradient>
    <filter id="concept-2-prism-line-tl-soft" x="-12%" y="-16%" width="124%" height="132%">
      <feDropShadow dx="0" dy="18" stdDeviation="18" flood-color="#082E35" flood-opacity="0.12"/>
    </filter>
  </defs>
  <rect width="1024" height="512" rx="38" fill="url(#concept-2-prism-line-tl-bg)"/>
  <g filter="url(#concept-2-prism-line-tl-soft)">
    <rect x="74" y="58" width="364" height="396" rx="22" fill="#FFFFFF"/>
    <g transform="translate(0 0)">
      <g id="icon" fill="none" stroke="#0D2D33" stroke-width="18" stroke-linejoin="round" stroke-linecap="round" shape-rendering="geometricPrecision">
      <path d="M88 138H337L393 193L358 247L316 192H220L178 404H392L444 350"/>
      <path d="M220 192L178 404"/>
      <path d="M337 138L393 193H328"/>
      <path d="M358 247L444 350H392"/>
      <path d="M178 404L219 450H355L392 404"/>
      <path d="M393 193L356 239" stroke="#9BEBC8"/>
      <path d="M316 192L358 247" stroke="#21C7D8"/>
    </g>
    </g>
  </g>
  <g font-family="PingFang SC, Microsoft YaHei, Noto Sans CJK SC, Source Han Sans SC, Helvetica, Arial, sans-serif">
    <text x="510" y="184" fill="#0D2D33" font-size="58" font-weight="760">坦隆环境</text>
    <text x="514" y="233" fill="#6D858B" font-size="22" font-weight="700" letter-spacing="4.4">TANLONG ENVIRONMENT</text>
    <text x="514" y="296" fill="#0EA7A0" font-size="20" font-weight="650" letter-spacing="3">AXONOMETRIC OUTLINE</text>
    <path d="M514 326H748" stroke="#0EA7A0" stroke-width="4" stroke-linecap="round"/>
    <path d="M766 326H822" stroke="#9BEBC8" stroke-width="4" stroke-linecap="round"/>
    <text x="92" y="478" fill="#6D858B" font-size="15" font-weight="650" letter-spacing="1.5">更接近参考图右侧的立体线框，适合品牌规范页，但官网小尺寸稍弱。</text>
  </g>
  <text x="822" y="438" fill="#6D858B" font-family="Helvetica, Arial, sans-serif" font-size="15" font-weight="700" letter-spacing="2">OPTION</text>
</svg>
