<svg xmlns="http://www.w3.org/2000/svg" viewBox="0 0 390 64" role="img" aria-labelledby="tanlong-full-title tanlong-full-desc">
  <title id="tanlong-full-title">ÕØ”ķÜåńÄ»Õóā Tanlong Environment logo</title>
  <desc id="tanlong-full-desc">A premium Tanlong Environment logo with a minimalist Chinese dragon-shaped TL mark and bilingual wordmark.</desc>
  <defs>
    <linearGradient id="tanlong-full-water" x1="108" y1="315" x2="438" y2="263" gradientUnits="userSpaceOnUse">
      <stop offset="0" stop-color="#8BE7C2"/>
      <stop offset="0.52" stop-color="#22C5D6"/>
      <stop offset="1" stop-color="#0FA7A1"/>
    </linearGradient>
  </defs>
  <defs><filter id="tanlong-full-shadow" x="-20%" y="-20%" width="140%" height="140%">
      <feDropShadow dx="0" dy="8" stdDeviation="10" flood-color="#001D25" flood-opacity="0.22"/>
    </filter></defs>
  <g fill="none" filter="url(#tanlong-full-shadow)">
    <g transform="translate(-5 -1) scale(0.128)">
      <g id="icon">
    <path d="M118 155C188 134 300 133 394 159" fill="none" stroke="#FFFFFF" stroke-width="35" stroke-linecap="round"/>
    <path d="M252 152C232 219 205 282 169 354" fill="none" stroke="#FFFFFF" stroke-width="33" stroke-linecap="round"/>
    <path d="M265 163C255 236 262 306 293 351C316 385 363 388 422 347" fill="none" stroke="#FFFFFF" stroke-width="40" stroke-linecap="round" stroke-linejoin="round"/>
    <path d="M145 365C220 405 331 399 429 332" fill="none" stroke="#FFFFFF" stroke-width="30" stroke-linecap="round"/>
    <path d="M122 282C184 250 244 258 304 287C354 311 397 301 437 262" fill="none" stroke="url(#tanlong-full-water)" stroke-width="19" stroke-linecap="round"/>
    <path d="M358 126C385 107 418 109 443 132" fill="none" stroke="url(#tanlong-full-water)" stroke-width="10" stroke-linecap="round"/>
    <path d="M126 235C154 209 188 195 227 193" fill="none" stroke="rgba(255,255,255,0.32)" stroke-width="8" stroke-linecap="round"/>
    <circle cx="389" cy="151" r="8" fill="#8BE7C2"/>
  </g>
    </g>
    <g id="wordmark" font-family="PingFang SC, Microsoft YaHei, Noto Sans CJK SC, Source Han Sans SC, Helvetica, Arial, sans-serif">
      <text x="88" y="29" fill="#FFFFFF" font-size="29" font-weight="760" letter-spacing="0">ÕØ”ķÜåńÄ»Õóā</text>
      <text x="90" y="50" fill="rgba(255,255,255,0.78)" font-size="12.3" font-weight="650" letter-spacing="2.05">TANLONG ENVIRONMENT</text>
    </g>
  </g>
</svg>
